M48
; DRILL file {KiCad (5.1.9)-1} date 06/10/21 11:21:28
; FORMAT={-:-/ absolute / inch / decimal}
; #@! TF.CreationDate,2021-06-10T11:21:28+02:00
; #@! TF.GenerationSoftware,Kicad,Pcbnew,(5.1.9)-1
; #@! TF.FileFunction,Plated,1,2,PTH
FMAT,2
INCH
T1C0.0374
%
G90
G05
T1
X5.8661Y-4.9213
X5.8661Y-5.0197
X5.8661Y-5.1181
X5.8661Y-5.2165
X6.1417Y-4.9213
X6.1417Y-5.0197
X6.1417Y-5.1181
X6.1417Y-5.2165
X6.4173Y-4.9213
X6.4173Y-5.0197
X6.4173Y-5.1181
X6.4173Y-5.2165
X6.6929Y-4.9213
X6.6929Y-5.0197
X6.6929Y-5.1181
X6.6929Y-5.2165
X6.9685Y-4.9213
X6.9685Y-5.0197
X6.9685Y-5.1181
X6.9685Y-5.2165
T0
M30
