%TF.GenerationSoftware,KiCad,Pcbnew,(5.1.9)-1*%
%TF.CreationDate,2021-06-10T11:21:26+02:00*%
%TF.ProjectId,20_Multiprise_JST_4pins,32305f4d-756c-4746-9970-726973655f4a,rev?*%
%TF.SameCoordinates,Original*%
%TF.FileFunction,Legend,Top*%
%TF.FilePolarity,Positive*%
%FSLAX46Y46*%
G04 Gerber Fmt 4.6, Leading zero omitted, Abs format (unit mm)*
G04 Created by KiCad (PCBNEW (5.1.9)-1) date 2021-06-10 11:21:26*
%MOMM*%
%LPD*%
G01*
G04 APERTURE LIST*
%TA.AperFunction,Profile*%
%ADD10C,0.150000*%
%TD*%
%ADD11C,0.120000*%
G04 APERTURE END LIST*
D10*
X145000000Y-135500000D02*
X145000000Y-122000000D01*
X180000000Y-135500000D02*
X145000000Y-135500000D01*
X180000000Y-122000000D02*
X180000000Y-135500000D01*
X145000000Y-122000000D02*
X180000000Y-122000000D01*
D11*
%TO.C,J1*%
X151750000Y-122150000D02*
X150500000Y-122150000D01*
X151750000Y-123400000D02*
X151750000Y-122150000D01*
X146250000Y-134300000D02*
X146250000Y-128750000D01*
X149200000Y-134300000D02*
X146250000Y-134300000D01*
X149200000Y-135050000D02*
X149200000Y-134300000D01*
X146250000Y-123200000D02*
X146250000Y-128750000D01*
X149200000Y-123200000D02*
X146250000Y-123200000D01*
X149200000Y-122450000D02*
X149200000Y-123200000D01*
X151450000Y-135050000D02*
X151450000Y-133250000D01*
X150700000Y-135050000D02*
X151450000Y-135050000D01*
X150700000Y-133250000D02*
X150700000Y-135050000D01*
X151450000Y-133250000D02*
X150700000Y-133250000D01*
X151450000Y-124250000D02*
X151450000Y-122450000D01*
X150700000Y-124250000D02*
X151450000Y-124250000D01*
X150700000Y-122450000D02*
X150700000Y-124250000D01*
X151450000Y-122450000D02*
X150700000Y-122450000D01*
X151450000Y-131750000D02*
X151450000Y-125750000D01*
X150700000Y-131750000D02*
X151450000Y-131750000D01*
X150700000Y-125750000D02*
X150700000Y-131750000D01*
X151450000Y-125750000D02*
X150700000Y-125750000D01*
X151460000Y-135060000D02*
X151460000Y-122440000D01*
X145490000Y-135060000D02*
X151460000Y-135060000D01*
X145490000Y-122440000D02*
X145490000Y-135060000D01*
X151460000Y-122440000D02*
X145490000Y-122440000D01*
%TO.C,J2*%
X158460000Y-122440000D02*
X152490000Y-122440000D01*
X152490000Y-122440000D02*
X152490000Y-135060000D01*
X152490000Y-135060000D02*
X158460000Y-135060000D01*
X158460000Y-135060000D02*
X158460000Y-122440000D01*
X158450000Y-125750000D02*
X157700000Y-125750000D01*
X157700000Y-125750000D02*
X157700000Y-131750000D01*
X157700000Y-131750000D02*
X158450000Y-131750000D01*
X158450000Y-131750000D02*
X158450000Y-125750000D01*
X158450000Y-122450000D02*
X157700000Y-122450000D01*
X157700000Y-122450000D02*
X157700000Y-124250000D01*
X157700000Y-124250000D02*
X158450000Y-124250000D01*
X158450000Y-124250000D02*
X158450000Y-122450000D01*
X158450000Y-133250000D02*
X157700000Y-133250000D01*
X157700000Y-133250000D02*
X157700000Y-135050000D01*
X157700000Y-135050000D02*
X158450000Y-135050000D01*
X158450000Y-135050000D02*
X158450000Y-133250000D01*
X156200000Y-122450000D02*
X156200000Y-123200000D01*
X156200000Y-123200000D02*
X153250000Y-123200000D01*
X153250000Y-123200000D02*
X153250000Y-128750000D01*
X156200000Y-135050000D02*
X156200000Y-134300000D01*
X156200000Y-134300000D02*
X153250000Y-134300000D01*
X153250000Y-134300000D02*
X153250000Y-128750000D01*
X158750000Y-123400000D02*
X158750000Y-122150000D01*
X158750000Y-122150000D02*
X157500000Y-122150000D01*
%TO.C,J3*%
X172750000Y-122150000D02*
X171500000Y-122150000D01*
X172750000Y-123400000D02*
X172750000Y-122150000D01*
X167250000Y-134300000D02*
X167250000Y-128750000D01*
X170200000Y-134300000D02*
X167250000Y-134300000D01*
X170200000Y-135050000D02*
X170200000Y-134300000D01*
X167250000Y-123200000D02*
X167250000Y-128750000D01*
X170200000Y-123200000D02*
X167250000Y-123200000D01*
X170200000Y-122450000D02*
X170200000Y-123200000D01*
X172450000Y-135050000D02*
X172450000Y-133250000D01*
X171700000Y-135050000D02*
X172450000Y-135050000D01*
X171700000Y-133250000D02*
X171700000Y-135050000D01*
X172450000Y-133250000D02*
X171700000Y-133250000D01*
X172450000Y-124250000D02*
X172450000Y-122450000D01*
X171700000Y-124250000D02*
X172450000Y-124250000D01*
X171700000Y-122450000D02*
X171700000Y-124250000D01*
X172450000Y-122450000D02*
X171700000Y-122450000D01*
X172450000Y-131750000D02*
X172450000Y-125750000D01*
X171700000Y-131750000D02*
X172450000Y-131750000D01*
X171700000Y-125750000D02*
X171700000Y-131750000D01*
X172450000Y-125750000D02*
X171700000Y-125750000D01*
X172460000Y-135060000D02*
X172460000Y-122440000D01*
X166490000Y-135060000D02*
X172460000Y-135060000D01*
X166490000Y-122440000D02*
X166490000Y-135060000D01*
X172460000Y-122440000D02*
X166490000Y-122440000D01*
%TO.C,J4*%
X165460000Y-122440000D02*
X159490000Y-122440000D01*
X159490000Y-122440000D02*
X159490000Y-135060000D01*
X159490000Y-135060000D02*
X165460000Y-135060000D01*
X165460000Y-135060000D02*
X165460000Y-122440000D01*
X165450000Y-125750000D02*
X164700000Y-125750000D01*
X164700000Y-125750000D02*
X164700000Y-131750000D01*
X164700000Y-131750000D02*
X165450000Y-131750000D01*
X165450000Y-131750000D02*
X165450000Y-125750000D01*
X165450000Y-122450000D02*
X164700000Y-122450000D01*
X164700000Y-122450000D02*
X164700000Y-124250000D01*
X164700000Y-124250000D02*
X165450000Y-124250000D01*
X165450000Y-124250000D02*
X165450000Y-122450000D01*
X165450000Y-133250000D02*
X164700000Y-133250000D01*
X164700000Y-133250000D02*
X164700000Y-135050000D01*
X164700000Y-135050000D02*
X165450000Y-135050000D01*
X165450000Y-135050000D02*
X165450000Y-133250000D01*
X163200000Y-122450000D02*
X163200000Y-123200000D01*
X163200000Y-123200000D02*
X160250000Y-123200000D01*
X160250000Y-123200000D02*
X160250000Y-128750000D01*
X163200000Y-135050000D02*
X163200000Y-134300000D01*
X163200000Y-134300000D02*
X160250000Y-134300000D01*
X160250000Y-134300000D02*
X160250000Y-128750000D01*
X165750000Y-123400000D02*
X165750000Y-122150000D01*
X165750000Y-122150000D02*
X164500000Y-122150000D01*
%TO.C,J5*%
X179750000Y-122150000D02*
X178500000Y-122150000D01*
X179750000Y-123400000D02*
X179750000Y-122150000D01*
X174250000Y-134300000D02*
X174250000Y-128750000D01*
X177200000Y-134300000D02*
X174250000Y-134300000D01*
X177200000Y-135050000D02*
X177200000Y-134300000D01*
X174250000Y-123200000D02*
X174250000Y-128750000D01*
X177200000Y-123200000D02*
X174250000Y-123200000D01*
X177200000Y-122450000D02*
X177200000Y-123200000D01*
X179450000Y-135050000D02*
X179450000Y-133250000D01*
X178700000Y-135050000D02*
X179450000Y-135050000D01*
X178700000Y-133250000D02*
X178700000Y-135050000D01*
X179450000Y-133250000D02*
X178700000Y-133250000D01*
X179450000Y-124250000D02*
X179450000Y-122450000D01*
X178700000Y-124250000D02*
X179450000Y-124250000D01*
X178700000Y-122450000D02*
X178700000Y-124250000D01*
X179450000Y-122450000D02*
X178700000Y-122450000D01*
X179450000Y-131750000D02*
X179450000Y-125750000D01*
X178700000Y-131750000D02*
X179450000Y-131750000D01*
X178700000Y-125750000D02*
X178700000Y-131750000D01*
X179450000Y-125750000D02*
X178700000Y-125750000D01*
X179460000Y-135060000D02*
X179460000Y-122440000D01*
X173490000Y-135060000D02*
X179460000Y-135060000D01*
X173490000Y-122440000D02*
X173490000Y-135060000D01*
X179460000Y-122440000D02*
X173490000Y-122440000D01*
%TD*%
M02*
