%TF.GenerationSoftware,KiCad,Pcbnew,(5.1.9)-1*%
%TF.CreationDate,2021-06-10T11:21:26+02:00*%
%TF.ProjectId,20_Multiprise_JST_4pins,32305f4d-756c-4746-9970-726973655f4a,rev?*%
%TF.SameCoordinates,Original*%
%TF.FileFunction,Soldermask,Top*%
%TF.FilePolarity,Negative*%
%FSLAX46Y46*%
G04 Gerber Fmt 4.6, Leading zero omitted, Abs format (unit mm)*
G04 Created by KiCad (PCBNEW (5.1.9)-1) date 2021-06-10 11:21:26*
%MOMM*%
%LPD*%
G01*
G04 APERTURE LIST*
%TA.AperFunction,Profile*%
%ADD10C,0.150000*%
%TD*%
%ADD11O,2.050000X1.800000*%
G04 APERTURE END LIST*
D10*
X145000000Y-135500000D02*
X145000000Y-122000000D01*
X180000000Y-135500000D02*
X145000000Y-135500000D01*
X180000000Y-122000000D02*
X180000000Y-135500000D01*
X145000000Y-122000000D02*
X180000000Y-122000000D01*
%TO.C,J1*%
G36*
G01*
X148239705Y-124100000D02*
X149760295Y-124100000D01*
G75*
G02*
X150025000Y-124364705I0J-264705D01*
G01*
X150025000Y-125635295D01*
G75*
G02*
X149760295Y-125900000I-264705J0D01*
G01*
X148239705Y-125900000D01*
G75*
G02*
X147975000Y-125635295I0J264705D01*
G01*
X147975000Y-124364705D01*
G75*
G02*
X148239705Y-124100000I264705J0D01*
G01*
G37*
D11*
X149000000Y-127500000D03*
X149000000Y-130000000D03*
X149000000Y-132500000D03*
%TD*%
%TO.C,J2*%
X156000000Y-132500000D03*
X156000000Y-130000000D03*
X156000000Y-127500000D03*
G36*
G01*
X155239705Y-124100000D02*
X156760295Y-124100000D01*
G75*
G02*
X157025000Y-124364705I0J-264705D01*
G01*
X157025000Y-125635295D01*
G75*
G02*
X156760295Y-125900000I-264705J0D01*
G01*
X155239705Y-125900000D01*
G75*
G02*
X154975000Y-125635295I0J264705D01*
G01*
X154975000Y-124364705D01*
G75*
G02*
X155239705Y-124100000I264705J0D01*
G01*
G37*
%TD*%
%TO.C,J3*%
G36*
G01*
X169239705Y-124100000D02*
X170760295Y-124100000D01*
G75*
G02*
X171025000Y-124364705I0J-264705D01*
G01*
X171025000Y-125635295D01*
G75*
G02*
X170760295Y-125900000I-264705J0D01*
G01*
X169239705Y-125900000D01*
G75*
G02*
X168975000Y-125635295I0J264705D01*
G01*
X168975000Y-124364705D01*
G75*
G02*
X169239705Y-124100000I264705J0D01*
G01*
G37*
X170000000Y-127500000D03*
X170000000Y-130000000D03*
X170000000Y-132500000D03*
%TD*%
%TO.C,J4*%
X163000000Y-132500000D03*
X163000000Y-130000000D03*
X163000000Y-127500000D03*
G36*
G01*
X162239705Y-124100000D02*
X163760295Y-124100000D01*
G75*
G02*
X164025000Y-124364705I0J-264705D01*
G01*
X164025000Y-125635295D01*
G75*
G02*
X163760295Y-125900000I-264705J0D01*
G01*
X162239705Y-125900000D01*
G75*
G02*
X161975000Y-125635295I0J264705D01*
G01*
X161975000Y-124364705D01*
G75*
G02*
X162239705Y-124100000I264705J0D01*
G01*
G37*
%TD*%
%TO.C,J5*%
G36*
G01*
X176239705Y-124100000D02*
X177760295Y-124100000D01*
G75*
G02*
X178025000Y-124364705I0J-264705D01*
G01*
X178025000Y-125635295D01*
G75*
G02*
X177760295Y-125900000I-264705J0D01*
G01*
X176239705Y-125900000D01*
G75*
G02*
X175975000Y-125635295I0J264705D01*
G01*
X175975000Y-124364705D01*
G75*
G02*
X176239705Y-124100000I264705J0D01*
G01*
G37*
X177000000Y-127500000D03*
X177000000Y-130000000D03*
X177000000Y-132500000D03*
%TD*%
M02*
