%TF.GenerationSoftware,KiCad,Pcbnew,(5.1.9)-1*%
%TF.CreationDate,2021-06-10T11:21:26+02:00*%
%TF.ProjectId,20_Multiprise_JST_4pins,32305f4d-756c-4746-9970-726973655f4a,rev?*%
%TF.SameCoordinates,Original*%
%TF.FileFunction,Other,Fab,Top*%
%FSLAX46Y46*%
G04 Gerber Fmt 4.6, Leading zero omitted, Abs format (unit mm)*
G04 Created by KiCad (PCBNEW (5.1.9)-1) date 2021-06-10 11:21:26*
%MOMM*%
%LPD*%
G01*
G04 APERTURE LIST*
%TA.AperFunction,Profile*%
%ADD10C,0.150000*%
%TD*%
%ADD11C,0.100000*%
%ADD12C,0.150000*%
G04 APERTURE END LIST*
D10*
X145000000Y-135500000D02*
X145000000Y-122000000D01*
X180000000Y-135500000D02*
X145000000Y-135500000D01*
X180000000Y-122000000D02*
X180000000Y-135500000D01*
X145000000Y-122000000D02*
X180000000Y-122000000D01*
D11*
%TO.C,J1*%
X150350000Y-125000000D02*
X151350000Y-125625000D01*
X151350000Y-124375000D02*
X150350000Y-125000000D01*
X151350000Y-134950000D02*
X151350000Y-122550000D01*
X145600000Y-134950000D02*
X151350000Y-134950000D01*
X145600000Y-122550000D02*
X145600000Y-134950000D01*
X151350000Y-122550000D02*
X145600000Y-122550000D01*
%TO.C,J2*%
X158350000Y-122550000D02*
X152600000Y-122550000D01*
X152600000Y-122550000D02*
X152600000Y-134950000D01*
X152600000Y-134950000D02*
X158350000Y-134950000D01*
X158350000Y-134950000D02*
X158350000Y-122550000D01*
X158350000Y-124375000D02*
X157350000Y-125000000D01*
X157350000Y-125000000D02*
X158350000Y-125625000D01*
%TO.C,J3*%
X171350000Y-125000000D02*
X172350000Y-125625000D01*
X172350000Y-124375000D02*
X171350000Y-125000000D01*
X172350000Y-134950000D02*
X172350000Y-122550000D01*
X166600000Y-134950000D02*
X172350000Y-134950000D01*
X166600000Y-122550000D02*
X166600000Y-134950000D01*
X172350000Y-122550000D02*
X166600000Y-122550000D01*
%TO.C,J4*%
X165350000Y-122550000D02*
X159600000Y-122550000D01*
X159600000Y-122550000D02*
X159600000Y-134950000D01*
X159600000Y-134950000D02*
X165350000Y-134950000D01*
X165350000Y-134950000D02*
X165350000Y-122550000D01*
X165350000Y-124375000D02*
X164350000Y-125000000D01*
X164350000Y-125000000D02*
X165350000Y-125625000D01*
%TO.C,J5*%
X178350000Y-125000000D02*
X179350000Y-125625000D01*
X179350000Y-124375000D02*
X178350000Y-125000000D01*
X179350000Y-134950000D02*
X179350000Y-122550000D01*
X173600000Y-134950000D02*
X179350000Y-134950000D01*
X173600000Y-122550000D02*
X173600000Y-134950000D01*
X179350000Y-122550000D02*
X173600000Y-122550000D01*
%TD*%
%TO.C,J1*%
D12*
X144757142Y-132488095D02*
X144804761Y-132535714D01*
X144852380Y-132678571D01*
X144852380Y-132773809D01*
X144804761Y-132916666D01*
X144709523Y-133011904D01*
X144614285Y-133059523D01*
X144423809Y-133107142D01*
X144280952Y-133107142D01*
X144090476Y-133059523D01*
X143995238Y-133011904D01*
X143900000Y-132916666D01*
X143852380Y-132773809D01*
X143852380Y-132678571D01*
X143900000Y-132535714D01*
X143947619Y-132488095D01*
X144852380Y-131916666D02*
X144804761Y-132011904D01*
X144757142Y-132059523D01*
X144661904Y-132107142D01*
X144376190Y-132107142D01*
X144280952Y-132059523D01*
X144233333Y-132011904D01*
X144185714Y-131916666D01*
X144185714Y-131773809D01*
X144233333Y-131678571D01*
X144280952Y-131630952D01*
X144376190Y-131583333D01*
X144661904Y-131583333D01*
X144757142Y-131630952D01*
X144804761Y-131678571D01*
X144852380Y-131773809D01*
X144852380Y-131916666D01*
X144185714Y-131154761D02*
X144852380Y-131154761D01*
X144280952Y-131154761D02*
X144233333Y-131107142D01*
X144185714Y-131011904D01*
X144185714Y-130869047D01*
X144233333Y-130773809D01*
X144328571Y-130726190D01*
X144852380Y-130726190D01*
X144185714Y-130250000D02*
X144852380Y-130250000D01*
X144280952Y-130250000D02*
X144233333Y-130202380D01*
X144185714Y-130107142D01*
X144185714Y-129964285D01*
X144233333Y-129869047D01*
X144328571Y-129821428D01*
X144852380Y-129821428D01*
X144947619Y-129583333D02*
X144947619Y-128821428D01*
X143852380Y-128392857D02*
X143852380Y-128297619D01*
X143900000Y-128202380D01*
X143947619Y-128154761D01*
X144042857Y-128107142D01*
X144233333Y-128059523D01*
X144471428Y-128059523D01*
X144661904Y-128107142D01*
X144757142Y-128154761D01*
X144804761Y-128202380D01*
X144852380Y-128297619D01*
X144852380Y-128392857D01*
X144804761Y-128488095D01*
X144757142Y-128535714D01*
X144661904Y-128583333D01*
X144471428Y-128630952D01*
X144233333Y-128630952D01*
X144042857Y-128583333D01*
X143947619Y-128535714D01*
X143900000Y-128488095D01*
X143852380Y-128392857D01*
X144852380Y-127107142D02*
X144852380Y-127678571D01*
X144852380Y-127392857D02*
X143852380Y-127392857D01*
X143995238Y-127488095D01*
X144090476Y-127583333D01*
X144138095Y-127678571D01*
X144852380Y-126773809D02*
X144185714Y-126250000D01*
X144185714Y-126773809D02*
X144852380Y-126250000D01*
X143852380Y-125678571D02*
X143852380Y-125583333D01*
X143900000Y-125488095D01*
X143947619Y-125440476D01*
X144042857Y-125392857D01*
X144233333Y-125345238D01*
X144471428Y-125345238D01*
X144661904Y-125392857D01*
X144757142Y-125440476D01*
X144804761Y-125488095D01*
X144852380Y-125583333D01*
X144852380Y-125678571D01*
X144804761Y-125773809D01*
X144757142Y-125821428D01*
X144661904Y-125869047D01*
X144471428Y-125916666D01*
X144233333Y-125916666D01*
X144042857Y-125869047D01*
X143947619Y-125821428D01*
X143900000Y-125773809D01*
X143852380Y-125678571D01*
X144185714Y-124488095D02*
X144852380Y-124488095D01*
X143804761Y-124726190D02*
X144519047Y-124964285D01*
X144519047Y-124345238D01*
X145752380Y-129083333D02*
X146466666Y-129083333D01*
X146609523Y-129130952D01*
X146704761Y-129226190D01*
X146752380Y-129369047D01*
X146752380Y-129464285D01*
X146752380Y-128083333D02*
X146752380Y-128654761D01*
X146752380Y-128369047D02*
X145752380Y-128369047D01*
X145895238Y-128464285D01*
X145990476Y-128559523D01*
X146038095Y-128654761D01*
%TO.C,J2*%
X151757142Y-132488095D02*
X151804761Y-132535714D01*
X151852380Y-132678571D01*
X151852380Y-132773809D01*
X151804761Y-132916666D01*
X151709523Y-133011904D01*
X151614285Y-133059523D01*
X151423809Y-133107142D01*
X151280952Y-133107142D01*
X151090476Y-133059523D01*
X150995238Y-133011904D01*
X150900000Y-132916666D01*
X150852380Y-132773809D01*
X150852380Y-132678571D01*
X150900000Y-132535714D01*
X150947619Y-132488095D01*
X151852380Y-131916666D02*
X151804761Y-132011904D01*
X151757142Y-132059523D01*
X151661904Y-132107142D01*
X151376190Y-132107142D01*
X151280952Y-132059523D01*
X151233333Y-132011904D01*
X151185714Y-131916666D01*
X151185714Y-131773809D01*
X151233333Y-131678571D01*
X151280952Y-131630952D01*
X151376190Y-131583333D01*
X151661904Y-131583333D01*
X151757142Y-131630952D01*
X151804761Y-131678571D01*
X151852380Y-131773809D01*
X151852380Y-131916666D01*
X151185714Y-131154761D02*
X151852380Y-131154761D01*
X151280952Y-131154761D02*
X151233333Y-131107142D01*
X151185714Y-131011904D01*
X151185714Y-130869047D01*
X151233333Y-130773809D01*
X151328571Y-130726190D01*
X151852380Y-130726190D01*
X151185714Y-130250000D02*
X151852380Y-130250000D01*
X151280952Y-130250000D02*
X151233333Y-130202380D01*
X151185714Y-130107142D01*
X151185714Y-129964285D01*
X151233333Y-129869047D01*
X151328571Y-129821428D01*
X151852380Y-129821428D01*
X151947619Y-129583333D02*
X151947619Y-128821428D01*
X150852380Y-128392857D02*
X150852380Y-128297619D01*
X150900000Y-128202380D01*
X150947619Y-128154761D01*
X151042857Y-128107142D01*
X151233333Y-128059523D01*
X151471428Y-128059523D01*
X151661904Y-128107142D01*
X151757142Y-128154761D01*
X151804761Y-128202380D01*
X151852380Y-128297619D01*
X151852380Y-128392857D01*
X151804761Y-128488095D01*
X151757142Y-128535714D01*
X151661904Y-128583333D01*
X151471428Y-128630952D01*
X151233333Y-128630952D01*
X151042857Y-128583333D01*
X150947619Y-128535714D01*
X150900000Y-128488095D01*
X150852380Y-128392857D01*
X151852380Y-127107142D02*
X151852380Y-127678571D01*
X151852380Y-127392857D02*
X150852380Y-127392857D01*
X150995238Y-127488095D01*
X151090476Y-127583333D01*
X151138095Y-127678571D01*
X151852380Y-126773809D02*
X151185714Y-126250000D01*
X151185714Y-126773809D02*
X151852380Y-126250000D01*
X150852380Y-125678571D02*
X150852380Y-125583333D01*
X150900000Y-125488095D01*
X150947619Y-125440476D01*
X151042857Y-125392857D01*
X151233333Y-125345238D01*
X151471428Y-125345238D01*
X151661904Y-125392857D01*
X151757142Y-125440476D01*
X151804761Y-125488095D01*
X151852380Y-125583333D01*
X151852380Y-125678571D01*
X151804761Y-125773809D01*
X151757142Y-125821428D01*
X151661904Y-125869047D01*
X151471428Y-125916666D01*
X151233333Y-125916666D01*
X151042857Y-125869047D01*
X150947619Y-125821428D01*
X150900000Y-125773809D01*
X150852380Y-125678571D01*
X151185714Y-124488095D02*
X151852380Y-124488095D01*
X150804761Y-124726190D02*
X151519047Y-124964285D01*
X151519047Y-124345238D01*
X152752380Y-129083333D02*
X153466666Y-129083333D01*
X153609523Y-129130952D01*
X153704761Y-129226190D01*
X153752380Y-129369047D01*
X153752380Y-129464285D01*
X152847619Y-128654761D02*
X152800000Y-128607142D01*
X152752380Y-128511904D01*
X152752380Y-128273809D01*
X152800000Y-128178571D01*
X152847619Y-128130952D01*
X152942857Y-128083333D01*
X153038095Y-128083333D01*
X153180952Y-128130952D01*
X153752380Y-128702380D01*
X153752380Y-128083333D01*
%TO.C,J3*%
X165757142Y-132488095D02*
X165804761Y-132535714D01*
X165852380Y-132678571D01*
X165852380Y-132773809D01*
X165804761Y-132916666D01*
X165709523Y-133011904D01*
X165614285Y-133059523D01*
X165423809Y-133107142D01*
X165280952Y-133107142D01*
X165090476Y-133059523D01*
X164995238Y-133011904D01*
X164900000Y-132916666D01*
X164852380Y-132773809D01*
X164852380Y-132678571D01*
X164900000Y-132535714D01*
X164947619Y-132488095D01*
X165852380Y-131916666D02*
X165804761Y-132011904D01*
X165757142Y-132059523D01*
X165661904Y-132107142D01*
X165376190Y-132107142D01*
X165280952Y-132059523D01*
X165233333Y-132011904D01*
X165185714Y-131916666D01*
X165185714Y-131773809D01*
X165233333Y-131678571D01*
X165280952Y-131630952D01*
X165376190Y-131583333D01*
X165661904Y-131583333D01*
X165757142Y-131630952D01*
X165804761Y-131678571D01*
X165852380Y-131773809D01*
X165852380Y-131916666D01*
X165185714Y-131154761D02*
X165852380Y-131154761D01*
X165280952Y-131154761D02*
X165233333Y-131107142D01*
X165185714Y-131011904D01*
X165185714Y-130869047D01*
X165233333Y-130773809D01*
X165328571Y-130726190D01*
X165852380Y-130726190D01*
X165185714Y-130250000D02*
X165852380Y-130250000D01*
X165280952Y-130250000D02*
X165233333Y-130202380D01*
X165185714Y-130107142D01*
X165185714Y-129964285D01*
X165233333Y-129869047D01*
X165328571Y-129821428D01*
X165852380Y-129821428D01*
X165947619Y-129583333D02*
X165947619Y-128821428D01*
X164852380Y-128392857D02*
X164852380Y-128297619D01*
X164900000Y-128202380D01*
X164947619Y-128154761D01*
X165042857Y-128107142D01*
X165233333Y-128059523D01*
X165471428Y-128059523D01*
X165661904Y-128107142D01*
X165757142Y-128154761D01*
X165804761Y-128202380D01*
X165852380Y-128297619D01*
X165852380Y-128392857D01*
X165804761Y-128488095D01*
X165757142Y-128535714D01*
X165661904Y-128583333D01*
X165471428Y-128630952D01*
X165233333Y-128630952D01*
X165042857Y-128583333D01*
X164947619Y-128535714D01*
X164900000Y-128488095D01*
X164852380Y-128392857D01*
X165852380Y-127107142D02*
X165852380Y-127678571D01*
X165852380Y-127392857D02*
X164852380Y-127392857D01*
X164995238Y-127488095D01*
X165090476Y-127583333D01*
X165138095Y-127678571D01*
X165852380Y-126773809D02*
X165185714Y-126250000D01*
X165185714Y-126773809D02*
X165852380Y-126250000D01*
X164852380Y-125678571D02*
X164852380Y-125583333D01*
X164900000Y-125488095D01*
X164947619Y-125440476D01*
X165042857Y-125392857D01*
X165233333Y-125345238D01*
X165471428Y-125345238D01*
X165661904Y-125392857D01*
X165757142Y-125440476D01*
X165804761Y-125488095D01*
X165852380Y-125583333D01*
X165852380Y-125678571D01*
X165804761Y-125773809D01*
X165757142Y-125821428D01*
X165661904Y-125869047D01*
X165471428Y-125916666D01*
X165233333Y-125916666D01*
X165042857Y-125869047D01*
X164947619Y-125821428D01*
X164900000Y-125773809D01*
X164852380Y-125678571D01*
X165185714Y-124488095D02*
X165852380Y-124488095D01*
X164804761Y-124726190D02*
X165519047Y-124964285D01*
X165519047Y-124345238D01*
X166752380Y-129083333D02*
X167466666Y-129083333D01*
X167609523Y-129130952D01*
X167704761Y-129226190D01*
X167752380Y-129369047D01*
X167752380Y-129464285D01*
X166752380Y-128702380D02*
X166752380Y-128083333D01*
X167133333Y-128416666D01*
X167133333Y-128273809D01*
X167180952Y-128178571D01*
X167228571Y-128130952D01*
X167323809Y-128083333D01*
X167561904Y-128083333D01*
X167657142Y-128130952D01*
X167704761Y-128178571D01*
X167752380Y-128273809D01*
X167752380Y-128559523D01*
X167704761Y-128654761D01*
X167657142Y-128702380D01*
%TO.C,J4*%
X158757142Y-132488095D02*
X158804761Y-132535714D01*
X158852380Y-132678571D01*
X158852380Y-132773809D01*
X158804761Y-132916666D01*
X158709523Y-133011904D01*
X158614285Y-133059523D01*
X158423809Y-133107142D01*
X158280952Y-133107142D01*
X158090476Y-133059523D01*
X157995238Y-133011904D01*
X157900000Y-132916666D01*
X157852380Y-132773809D01*
X157852380Y-132678571D01*
X157900000Y-132535714D01*
X157947619Y-132488095D01*
X158852380Y-131916666D02*
X158804761Y-132011904D01*
X158757142Y-132059523D01*
X158661904Y-132107142D01*
X158376190Y-132107142D01*
X158280952Y-132059523D01*
X158233333Y-132011904D01*
X158185714Y-131916666D01*
X158185714Y-131773809D01*
X158233333Y-131678571D01*
X158280952Y-131630952D01*
X158376190Y-131583333D01*
X158661904Y-131583333D01*
X158757142Y-131630952D01*
X158804761Y-131678571D01*
X158852380Y-131773809D01*
X158852380Y-131916666D01*
X158185714Y-131154761D02*
X158852380Y-131154761D01*
X158280952Y-131154761D02*
X158233333Y-131107142D01*
X158185714Y-131011904D01*
X158185714Y-130869047D01*
X158233333Y-130773809D01*
X158328571Y-130726190D01*
X158852380Y-130726190D01*
X158185714Y-130250000D02*
X158852380Y-130250000D01*
X158280952Y-130250000D02*
X158233333Y-130202380D01*
X158185714Y-130107142D01*
X158185714Y-129964285D01*
X158233333Y-129869047D01*
X158328571Y-129821428D01*
X158852380Y-129821428D01*
X158947619Y-129583333D02*
X158947619Y-128821428D01*
X157852380Y-128392857D02*
X157852380Y-128297619D01*
X157900000Y-128202380D01*
X157947619Y-128154761D01*
X158042857Y-128107142D01*
X158233333Y-128059523D01*
X158471428Y-128059523D01*
X158661904Y-128107142D01*
X158757142Y-128154761D01*
X158804761Y-128202380D01*
X158852380Y-128297619D01*
X158852380Y-128392857D01*
X158804761Y-128488095D01*
X158757142Y-128535714D01*
X158661904Y-128583333D01*
X158471428Y-128630952D01*
X158233333Y-128630952D01*
X158042857Y-128583333D01*
X157947619Y-128535714D01*
X157900000Y-128488095D01*
X157852380Y-128392857D01*
X158852380Y-127107142D02*
X158852380Y-127678571D01*
X158852380Y-127392857D02*
X157852380Y-127392857D01*
X157995238Y-127488095D01*
X158090476Y-127583333D01*
X158138095Y-127678571D01*
X158852380Y-126773809D02*
X158185714Y-126250000D01*
X158185714Y-126773809D02*
X158852380Y-126250000D01*
X157852380Y-125678571D02*
X157852380Y-125583333D01*
X157900000Y-125488095D01*
X157947619Y-125440476D01*
X158042857Y-125392857D01*
X158233333Y-125345238D01*
X158471428Y-125345238D01*
X158661904Y-125392857D01*
X158757142Y-125440476D01*
X158804761Y-125488095D01*
X158852380Y-125583333D01*
X158852380Y-125678571D01*
X158804761Y-125773809D01*
X158757142Y-125821428D01*
X158661904Y-125869047D01*
X158471428Y-125916666D01*
X158233333Y-125916666D01*
X158042857Y-125869047D01*
X157947619Y-125821428D01*
X157900000Y-125773809D01*
X157852380Y-125678571D01*
X158185714Y-124488095D02*
X158852380Y-124488095D01*
X157804761Y-124726190D02*
X158519047Y-124964285D01*
X158519047Y-124345238D01*
X159752380Y-129083333D02*
X160466666Y-129083333D01*
X160609523Y-129130952D01*
X160704761Y-129226190D01*
X160752380Y-129369047D01*
X160752380Y-129464285D01*
X160085714Y-128178571D02*
X160752380Y-128178571D01*
X159704761Y-128416666D02*
X160419047Y-128654761D01*
X160419047Y-128035714D01*
%TO.C,J5*%
X172757142Y-132488095D02*
X172804761Y-132535714D01*
X172852380Y-132678571D01*
X172852380Y-132773809D01*
X172804761Y-132916666D01*
X172709523Y-133011904D01*
X172614285Y-133059523D01*
X172423809Y-133107142D01*
X172280952Y-133107142D01*
X172090476Y-133059523D01*
X171995238Y-133011904D01*
X171900000Y-132916666D01*
X171852380Y-132773809D01*
X171852380Y-132678571D01*
X171900000Y-132535714D01*
X171947619Y-132488095D01*
X172852380Y-131916666D02*
X172804761Y-132011904D01*
X172757142Y-132059523D01*
X172661904Y-132107142D01*
X172376190Y-132107142D01*
X172280952Y-132059523D01*
X172233333Y-132011904D01*
X172185714Y-131916666D01*
X172185714Y-131773809D01*
X172233333Y-131678571D01*
X172280952Y-131630952D01*
X172376190Y-131583333D01*
X172661904Y-131583333D01*
X172757142Y-131630952D01*
X172804761Y-131678571D01*
X172852380Y-131773809D01*
X172852380Y-131916666D01*
X172185714Y-131154761D02*
X172852380Y-131154761D01*
X172280952Y-131154761D02*
X172233333Y-131107142D01*
X172185714Y-131011904D01*
X172185714Y-130869047D01*
X172233333Y-130773809D01*
X172328571Y-130726190D01*
X172852380Y-130726190D01*
X172185714Y-130250000D02*
X172852380Y-130250000D01*
X172280952Y-130250000D02*
X172233333Y-130202380D01*
X172185714Y-130107142D01*
X172185714Y-129964285D01*
X172233333Y-129869047D01*
X172328571Y-129821428D01*
X172852380Y-129821428D01*
X172947619Y-129583333D02*
X172947619Y-128821428D01*
X171852380Y-128392857D02*
X171852380Y-128297619D01*
X171900000Y-128202380D01*
X171947619Y-128154761D01*
X172042857Y-128107142D01*
X172233333Y-128059523D01*
X172471428Y-128059523D01*
X172661904Y-128107142D01*
X172757142Y-128154761D01*
X172804761Y-128202380D01*
X172852380Y-128297619D01*
X172852380Y-128392857D01*
X172804761Y-128488095D01*
X172757142Y-128535714D01*
X172661904Y-128583333D01*
X172471428Y-128630952D01*
X172233333Y-128630952D01*
X172042857Y-128583333D01*
X171947619Y-128535714D01*
X171900000Y-128488095D01*
X171852380Y-128392857D01*
X172852380Y-127107142D02*
X172852380Y-127678571D01*
X172852380Y-127392857D02*
X171852380Y-127392857D01*
X171995238Y-127488095D01*
X172090476Y-127583333D01*
X172138095Y-127678571D01*
X172852380Y-126773809D02*
X172185714Y-126250000D01*
X172185714Y-126773809D02*
X172852380Y-126250000D01*
X171852380Y-125678571D02*
X171852380Y-125583333D01*
X171900000Y-125488095D01*
X171947619Y-125440476D01*
X172042857Y-125392857D01*
X172233333Y-125345238D01*
X172471428Y-125345238D01*
X172661904Y-125392857D01*
X172757142Y-125440476D01*
X172804761Y-125488095D01*
X172852380Y-125583333D01*
X172852380Y-125678571D01*
X172804761Y-125773809D01*
X172757142Y-125821428D01*
X172661904Y-125869047D01*
X172471428Y-125916666D01*
X172233333Y-125916666D01*
X172042857Y-125869047D01*
X171947619Y-125821428D01*
X171900000Y-125773809D01*
X171852380Y-125678571D01*
X172185714Y-124488095D02*
X172852380Y-124488095D01*
X171804761Y-124726190D02*
X172519047Y-124964285D01*
X172519047Y-124345238D01*
X173752380Y-129083333D02*
X174466666Y-129083333D01*
X174609523Y-129130952D01*
X174704761Y-129226190D01*
X174752380Y-129369047D01*
X174752380Y-129464285D01*
X173752380Y-128130952D02*
X173752380Y-128607142D01*
X174228571Y-128654761D01*
X174180952Y-128607142D01*
X174133333Y-128511904D01*
X174133333Y-128273809D01*
X174180952Y-128178571D01*
X174228571Y-128130952D01*
X174323809Y-128083333D01*
X174561904Y-128083333D01*
X174657142Y-128130952D01*
X174704761Y-128178571D01*
X174752380Y-128273809D01*
X174752380Y-128511904D01*
X174704761Y-128607142D01*
X174657142Y-128654761D01*
%TD*%
M02*
